<svg width="18" height="19" viewBox="0 0 18 19" fill="none" xmlns="http://www.w3.org/2000/svg">
<path d="M6.74191 0.903C8.46582 0.903 10.1191 1.58782 11.3381 2.80681C12.5571 4.02579 13.2419 5.67909 13.2419 7.403C13.2419 9.013 12.6519 10.493 11.6819 11.633L11.9519 11.903H12.7419L17.7419 16.903L16.2419 18.403L11.2419 13.403V12.613L10.9719 12.343C9.83191 13.313 8.35191 13.903 6.74191 13.903C5.01801 13.903 3.36471 13.2182 2.14572 11.9992C0.926732 10.7802 0.241913 9.12691 0.241913 7.403C0.241913 5.67909 0.926732 4.02579 2.14572 2.80681C3.36471 1.58782 5.01801 0.903 6.74191 0.903ZM6.74191 2.903C4.24191 2.903 2.24191 4.903 2.24191 7.403C2.24191 9.903 4.24191 11.903 6.74191 11.903C9.24191 11.903 11.2419 9.903 11.2419 7.403C11.2419 4.903 9.24191 2.903 6.74191 2.903Z" fill="#00FF00"/>
</svg>
