<svg width="22" height="24" viewBox="0 0 22 24" fill="none" xmlns="http://www.w3.org/2000/svg">
<path d="M18.82 14.4029C19.13 14.8529 19.66 15.1529 20.25 15.1529C21.22 15.1529 22 14.3729 22 13.4029C22 12.4329 21.22 11.6529 20.25 11.6529C19.66 11.6529 19.13 11.9529 18.82 12.4029H18C18 10.8329 17.5 9.40288 16.6 8.21288L17.94 6.87288C18.5 6.97288 19.07 6.81288 19.5 6.40288C20.17 5.71288 20.17 4.60288 19.5 3.90288C18.81 3.23288 17.7 3.23288 17 3.90288C16.59 4.33288 16.43 4.90288 16.53 5.46288L15.19 6.80288C14.27 6.11288 13.19 5.65288 12 5.48288V4.08288C12.45 3.77288 12.75 3.24288 12.75 2.65288C12.75 1.68288 11.97 0.902878 11 0.902878C10.03 0.902878 9.25 1.68288 9.25 2.65288C9.25 3.24288 9.55 3.77288 10 4.08288V5.48288C9.1 5.61288 8.26 5.90288 7.5 6.34288L6.39 4.75288C6.58 4.23288 6.53 3.63288 6.19 3.15288C5.63 2.36288 4.54 2.16288 3.75 2.72288C2.96 3.27288 2.76 4.36288 3.32 5.15288C3.66 5.64288 4.2 5.90288 4.75 5.90288L5.93 7.58288C5.5 8.01288 5.16 8.49288 4.87 9.02288C4.25 8.78288 3.5 8.90288 3 9.40288C2.33 10.1029 2.33 11.2029 3 11.9029C3.29 12.1729 3.64 12.3329 4 12.4029C4 12.9429 4.07 13.4629 4.18 13.9629L2.87 14.3129C2.45 13.9629 1.87 13.8129 1.29 13.9629C0.36 14.2129 -0.192 15.1729 0.0599999 16.1129C0.31 17.0429 1.28 17.5929 2.21 17.3429C2.78 17.1829 3.21 16.7629 3.39 16.2429L4.9 15.8329C5.35 16.6229 5.95 17.3229 6.65 17.9029L5.55 19.9029C5 19.9829 4.5 20.2929 4.21 20.8229C3.75 21.6729 4.07 22.7329 4.92 23.1929C5.77 23.6529 6.83 23.3329 7.29 22.4829C7.57 21.9629 7.56 21.3629 7.31 20.8729L8.38 18.9029C9.19 19.2229 10.07 19.4029 11 19.4029C11.06 19.4029 11.12 19.4029 11.18 19.4029C11.05 19.6629 11 19.9629 11 20.2829C11.08 21.2529 11.92 21.9729 12.88 21.9029C13.84 21.8329 14.57 20.9829 14.5 20.0229C14.46 19.5229 14.21 19.0829 13.85 18.7929C14.32 18.5829 14.77 18.3129 15.19 18.0029L17.53 20.3429C17.43 20.9029 17.59 21.4729 18 21.9029C18.7 22.5729 19.8 22.5729 20.5 21.9029C21.2 21.2329 21.17 20.1029 20.5 19.4029C20.07 18.9929 19.5 18.8329 18.94 18.9329L16.6 16.5929C17.09 15.9429 17.47 15.2029 17.71 14.4029H18.82ZM9.5 12.4029C8.67 12.4029 8 11.7329 8 10.9029C8 10.0729 8.67 9.40288 9.5 9.40288C10.33 9.40288 11 10.0729 11 10.9029C11 11.7329 10.33 12.4029 9.5 12.4029ZM13 15.4029C12.45 15.4029 12 14.9529 12 14.4029C12 13.8529 12.45 13.4029 13 13.4029C13.55 13.4029 14 13.8529 14 14.4029C14 14.9529 13.55 15.4029 13 15.4029Z" fill="#DC143C"/>
</svg>
